<svg width="2263" height="1399" viewBox="0 0 2263 1399" fill="none" xmlns="http://www.w3.org/2000/svg">
<rect width="2263" height="1399" fill="#1E1E1E"/>
<rect width="2263" height="1399" fill="white"/>
<g clip-path="url(#clip0_0_1)">
<g filter="url(#filter0_d_0_1)">
<path d="M1261.27 617.869L974.225 593.964C984.225 497.845 992.298 404.565 997.077 308.024L1281.18 330.749C1271.4 427.862 1266.8 522.349 1261.27 617.869Z" fill="#1B63B7"/>
</g>
<path d="M1249.47 607.603L957.918 583.321C968.049 486.137 974.416 389.703 979.145 292.086L1271.65 315.346C1261.74 413.534 1254.96 510.979 1249.47 607.603Z" fill="#3B93FA"/>
<path d="M1101.42 286.663L1165.01 290.087L1166.76 295.243L1165.42 301.245L1165.78 313.412L1164.45 319.414L1165.13 325.524L1099.52 321.992L1101.42 286.663Z" fill="#C6D3E2" fill-opacity="0.76"/>
<path d="M1166.52 309.828C1166.41 307.797 1166.31 304.35 1166.28 302.323C1166.34 301.172 1167.09 298.965 1167.17 297.816C1167.23 296.448 1167.1 295.078 1166.78 293.746C1166.56 292.823 1166.29 291.915 1165.95 291.029C1165.87 290.72 1165.24 290.018 1165.04 290.007C1165.21 290.563 1165.72 292.069 1165.86 292.724C1166.18 294.056 1166.31 295.426 1166.25 296.795C1166.19 297.945 1165.32 300.126 1165.34 301.301C1165.37 303.327 1165.47 306.774 1165.6 308.806C1165.65 309.821 1165.41 312.339 1165.36 313.349C1165.27 314.943 1164.42 318.056 1164.35 319.652C1164.31 320.5 1164.47 322.29 1164.59 323.552C1164.67 324.366 1164.73 324.957 1164.73 324.957L1098.86 321.41C1099.06 321.836 1099.38 322.193 1099.78 322.431L1162.68 325.818C1163.49 325.966 1164.32 325.935 1165.12 325.726C1165.12 325.726 1165.72 325.475 1165.5 324.573C1165.28 323.286 1165.21 321.978 1165.29 320.674C1165.38 319.079 1166.21 315.966 1166.28 314.37C1166.31 313.359 1166.57 310.842 1166.52 309.828Z" fill="#3B93FA"/>
<path d="M1169.44 465.088L1171.99 433.909C1172.93 422.491 1172.93 422.491 1162.21 414.288L1132.51 394.615C1128.05 391.661 1120.43 391.037 1115.55 393.227L1083.04 407.808C1071.14 414.16 1071.14 414.16 1070.2 425.577L1067.65 456.757C1066.72 468.175 1066.72 468.175 1077.43 476.378L1107.13 496.051C1111.59 499.005 1119.22 499.629 1124.1 497.439L1156.6 482.858C1168.51 476.506 1168.51 476.506 1169.44 465.088Z" fill="white" stroke="white" stroke-width="3" stroke-linecap="round" stroke-linejoin="round"/>
<path d="M1081.23 479.196L1079.88 495.695C1078.85 508.242 1084.91 515.054 1098.07 516.131L1130.94 518.822C1144.09 519.898 1151.18 514.163 1152.21 501.615L1153.52 485.555" stroke="white" stroke-width="3" stroke-linecap="round" stroke-linejoin="round"/>
<path d="M1125.86 428.214L1129.18 434.088C1129.71 435.013 1130.96 435.993 1131.92 436.32L1138.51 438.468C1142.57 439.791 1143.43 443.266 1140.49 446.196L1135.69 450.941C1134.97 451.706 1134.34 453.109 1134.32 454.118L1134.21 460.738C1134.16 464.838 1130.98 466.676 1127.15 464.866L1120.89 461.923C1119.74 461.456 1118.47 461.358 1117.27 461.644L1110.63 463.596C1106.57 464.798 1103.71 462.432 1104.28 458.435L1105.18 451.876C1105.33 450.877 1104.92 449.33 1104.32 448.526L1100.3 443.104C1097.85 439.758 1099.22 436.455 1103.45 435.77L1110.28 434.654C1111.35 434.484 1112.74 433.644 1113.33 432.869L1117.51 427.572C1120.14 424.365 1123.82 424.648 1125.86 428.214Z" fill="#3B93FA" stroke="white" stroke-width="3" stroke-linecap="round" stroke-linejoin="round"/>
</g>
<g filter="url(#filter1_d_0_1)">
<path d="M1804.48 1130.2L1513.96 1163.89C1504.74 1066.62 1494.16 972.542 1479.65 875.894L1767 841.621C1776.65 939.835 1790.91 1034.41 1804.48 1130.2Z" fill="#1B63B7"/>
</g>
<path d="M1786.46 1117.26L1495.84 1150.93C1486.62 1053.65 1473.85 957.855 1459.24 861.222L1750.59 826.366C1760.24 924.579 1772.79 1021.45 1786.46 1117.26Z" fill="#3B93FA"/>
<path d="M1578.05 831.802L1641.07 822.623L1643.8 827.333L1643.67 833.48L1646.42 845.338L1646.29 851.486L1648.17 857.342L1583.15 866.812L1578.05 831.802Z" fill="#C6D3E2" fill-opacity="0.76"/>
<path d="M1646.44 841.679C1645.93 839.71 1645.15 836.35 1644.72 834.37C1644.55 833.229 1644.85 830.918 1644.7 829.775C1644.49 828.422 1644.1 827.105 1643.52 825.861C1643.13 824.999 1642.68 824.164 1642.18 823.36C1642.03 823.075 1641.28 822.511 1641.08 822.54C1641.36 823.051 1642.15 824.427 1642.42 825.041C1643 826.284 1643.4 827.601 1643.6 828.955C1643.77 830.095 1643.35 832.404 1643.6 833.552C1644.03 835.532 1644.81 838.893 1645.34 840.858C1645.58 841.844 1645.85 844.359 1645.99 845.36C1646.22 846.94 1646 850.16 1646.25 851.738C1646.37 852.578 1646.89 854.301 1647.25 855.515C1647.48 856.297 1647.67 856.863 1647.67 856.863L1582.39 866.371C1582.66 866.751 1583.05 867.037 1583.49 867.192L1645.83 858.112C1646.65 858.097 1647.46 857.903 1648.2 857.542C1648.2 857.542 1648.74 857.177 1648.35 856.335C1647.88 855.118 1647.55 853.849 1647.37 852.555C1647.14 850.975 1647.34 847.758 1647.09 846.18C1646.93 845.183 1646.68 842.664 1646.44 841.679Z" fill="#3B93FA"/>
<g clip-path="url(#clip1_0_1)">
<path d="M1644.38 938.984L1643.23 930.498C1642.93 928.267 1640.73 926.681 1638.39 926.999C1636.04 927.317 1634.35 929.43 1634.65 931.66L1635.76 939.82L1598.6 944.857L1597.5 936.697C1597.19 934.466 1595 932.88 1592.66 933.198C1590.31 933.516 1588.62 935.629 1588.92 937.859L1590.07 946.346C1574.82 949.798 1568.52 959.571 1569.14 972.728C1569.24 974.321 1570.79 975.441 1572.39 975.224L1669.11 962.113C1670.77 961.888 1671.96 960.342 1671.58 958.842C1668.67 945.996 1660 938.252 1644.38 938.984V938.984ZM1667.59 970.63L1576.12 983.028C1572.98 983.454 1570.74 986.25 1571.14 989.243L1575.69 1022.75C1577.9 1039.07 1587.95 1048.79 1607.96 1046.08L1653.69 1039.88C1673.7 1037.17 1680.8 1025.13 1678.59 1008.81L1674.04 975.295C1673.64 972.303 1670.73 970.203 1667.59 970.63ZM1612.08 1024.52C1611.57 1025.09 1611 1025.56 1610.35 1025.92C1609.7 1026.29 1608.98 1026.55 1608.23 1026.65C1607.49 1026.75 1606.72 1026.69 1606 1026.51C1605.28 1026.33 1604.6 1026.04 1603.96 1025.62C1602.79 1024.73 1601.97 1023.4 1601.78 1021.99C1601.59 1020.57 1602.02 1019.07 1602.91 1017.9C1603.42 1017.33 1604 1016.87 1604.65 1016.5C1605.96 1015.77 1607.52 1015.56 1608.99 1015.91C1609.71 1016.09 1610.39 1016.39 1611.03 1016.8C1612.2 1017.69 1613.02 1019.02 1613.21 1020.44C1613.4 1021.85 1612.97 1023.35 1612.08 1024.52V1024.52ZM1610.45 1003.53C1610.26 1004.22 1609.94 1004.87 1609.5 1005.48C1608.99 1006.05 1608.41 1006.52 1607.77 1006.88C1607.12 1007.25 1606.4 1007.51 1605.65 1007.61C1604.91 1007.71 1604.14 1007.65 1603.42 1007.47C1602.7 1007.29 1602.02 1007 1601.38 1006.58C1600.79 1006.11 1600.31 1005.57 1599.94 1004.95C1599.55 1004.34 1599.3 1003.66 1599.2 1002.95C1599.1 1002.24 1599.18 1001.51 1599.38 1000.82C1599.57 1000.13 1599.89 999.473 1600.33 998.859C1600.84 998.292 1601.42 997.826 1602.06 997.461C1603.38 996.728 1604.94 996.517 1606.41 996.872C1607.13 997.051 1607.81 997.347 1608.45 997.759C1609.04 998.233 1609.52 998.777 1609.89 999.391C1610.27 1000.01 1610.54 1000.69 1610.63 1001.4C1610.73 1002.1 1610.65 1002.83 1610.45 1003.53V1003.53ZM1629.51 1002.77C1629 1003.34 1628.42 1003.8 1627.77 1004.17C1627.13 1004.53 1626.4 1004.8 1625.66 1004.9C1624.92 1005 1624.15 1004.94 1623.43 1004.76C1622.71 1004.58 1622.03 1004.28 1621.39 1003.87C1620.22 1002.98 1619.4 1001.65 1619.21 1000.23C1619.02 998.82 1619.45 997.32 1620.34 996.147C1620.85 995.58 1621.42 995.114 1622.07 994.749C1623.36 993.965 1624.96 993.748 1626.42 994.16C1627.14 994.339 1627.82 994.635 1628.46 995.047C1629.63 995.941 1630.45 997.27 1630.64 998.684C1630.83 1000.1 1630.39 1001.6 1629.51 1002.77V1002.77Z" fill="white"/>
</g>
<g filter="url(#filter2_d_0_1)">
<path d="M1831.28 679.839L1503.57 656.193C1513.75 547.91 1521.76 442.844 1525.97 334.145L1850.31 356.497C1840.4 465.896 1836.36 572.282 1831.28 679.839Z" fill="#185CAB"/>
</g>
<path d="M1818.86 669.285L1486.22 645.15C1496.58 534.246 1502.67 424.241 1506.87 312.909L1840.58 335.867C1830.49 447.914 1823.94 559.075 1818.86 669.285Z" fill="#1376E9"/>
<path d="M1646.19 305.241L1718.72 308.371L1720.78 314.227L1719.33 321.085L1719.88 334.95L1718.43 341.808L1719.29 348.765L1644.45 345.536L1646.19 305.241Z" fill="#C6D3E2" fill-opacity="0.76"/>
<path d="M1720.68 330.855C1720.53 328.541 1720.38 324.613 1720.31 322.304C1720.37 320.991 1721.19 318.466 1721.27 317.155C1721.33 315.594 1721.16 314.034 1720.78 312.52C1720.53 311.47 1720.2 310.439 1719.81 309.433C1719.71 309.082 1718.98 308.29 1718.75 308.28C1718.95 308.911 1719.55 310.621 1719.72 311.367C1720.1 312.881 1720.27 314.441 1720.22 316.002C1720.16 317.314 1719.2 319.81 1719.23 321.15C1719.29 323.459 1719.45 327.388 1719.63 329.702C1719.69 330.858 1719.45 333.732 1719.4 334.883C1719.32 336.702 1718.39 340.26 1718.33 342.08C1718.29 343.047 1718.5 345.086 1718.65 346.523C1718.74 347.45 1718.83 348.123 1718.83 348.123L1643.7 344.88C1643.92 345.364 1644.29 345.767 1644.76 346.033L1716.5 349.129C1717.43 349.288 1718.37 349.242 1719.28 348.995C1719.28 348.995 1719.96 348.702 1719.7 347.676C1719.43 346.212 1719.33 344.721 1719.41 343.234C1719.49 341.415 1720.4 337.856 1720.46 336.036C1720.49 334.883 1720.75 332.011 1720.68 330.855Z" fill="#1376E9"/>
<path d="M1691.14 435.313L1643.09 431.77C1622.21 430.232 1608.85 441.758 1607.31 462.631L1603.77 510.629C1602.23 531.559 1613.76 544.92 1634.63 546.459L1682.63 549.997C1703.5 551.536 1716.86 540.009 1718.4 519.136L1721.94 471.081C1723.54 450.212 1712.01 436.851 1691.14 435.313ZM1650.54 497.298C1646.19 502.874 1640.46 507.221 1633.92 509.911C1633.4 510.128 1632.85 510.241 1632.28 510.242C1631.72 510.243 1631.16 510.133 1630.64 509.918C1630.12 509.702 1629.65 509.387 1629.25 508.988C1628.86 508.589 1628.54 508.116 1628.33 507.596C1628.11 507.069 1627.99 506.504 1627.99 505.933C1627.99 505.363 1628.11 504.797 1628.33 504.271C1628.55 503.745 1628.87 503.268 1629.28 502.869C1629.69 502.47 1630.17 502.157 1630.71 501.948C1635.88 499.849 1640.4 496.378 1643.78 492.014C1644.92 490.542 1645.07 488.592 1644.15 486.968C1641.39 482.152 1637.43 478.054 1632.68 475.225C1632.18 474.943 1631.74 474.563 1631.39 474.109C1631.05 473.655 1630.79 473.135 1630.65 472.581C1630.51 472.027 1630.48 471.45 1630.57 470.884C1630.65 470.319 1630.85 469.776 1631.15 469.29C1632.34 467.244 1634.99 466.574 1637.03 467.82C1643.1 471.439 1648.14 476.596 1651.61 482.732C1654.27 487.368 1653.84 493.102 1650.54 497.298ZM1689.97 514.504L1667.04 512.813C1664.68 512.639 1662.88 510.546 1663.05 508.195C1663.22 505.844 1665.32 504.038 1667.67 504.211L1690.61 505.902C1692.96 506.075 1694.76 508.169 1694.59 510.52C1694.42 512.871 1692.32 514.677 1689.97 514.504Z" fill="white"/>
<g filter="url(#filter3_d_0_1)">
<path d="M750.138 635.017L424.289 690.406C408.012 580.95 390.402 475.195 368.202 366.762L690.439 310.905C707.25 421.398 729.054 527.505 750.138 635.017Z" fill="#1E43A3"/>
</g>
<path d="M737.873 628.858L409.067 684.727C392.694 574.549 372.377 466.265 349.916 357.141L679.477 299.875C696.388 411.098 716.529 520.615 737.873 628.858Z" fill="#3561D2"/>
<path d="M483.389 316.479L554.575 302.226L557.966 307.423L558.193 314.429L562.038 327.761L562.266 334.767L564.753 341.321L491.308 356.026L483.389 316.479Z" fill="#C6D3E2" fill-opacity="0.76"/>
<path d="M561.838 323.594C561.137 321.384 560.052 317.606 559.441 315.377C559.183 314.089 559.381 311.441 559.146 310.148C558.824 308.62 558.292 307.145 557.563 305.764C557.064 304.806 556.502 303.882 555.881 302.998C555.7 302.682 554.805 302.085 554.579 302.131C554.927 302.696 555.913 304.214 556.261 304.896C556.991 306.277 557.524 307.752 557.844 309.28C558.102 310.569 557.764 313.222 558.117 314.514C558.727 316.743 559.813 320.521 560.536 322.727C560.876 323.834 561.328 326.681 561.554 327.811C561.912 329.597 561.849 333.276 562.23 335.057C562.42 336.006 563.112 337.935 563.595 339.296C563.912 340.173 564.156 340.805 564.156 340.805L490.417 355.57C490.752 355.986 491.206 356.288 491.719 356.437L562.136 342.338C563.071 342.272 563.979 342.002 564.798 341.547C564.798 341.547 565.39 341.099 564.897 340.163C564.286 338.806 563.835 337.382 563.554 335.919C563.197 334.134 563.236 330.46 562.856 328.679C562.608 327.553 562.178 324.701 561.838 323.594Z" fill="#3561D2"/>
<path d="M541.626 530.151L564.043 525.992C582.724 522.527 588.811 513.668 585.345 494.987L581.187 472.569C577.721 453.888 568.863 447.802 550.181 451.267L527.764 455.426C509.083 458.891 502.996 467.75 506.462 486.431L510.62 508.849C514.086 527.53 522.944 533.616 541.626 530.151ZM504.999 436.46L502.226 421.515ZM534.814 430.929L532.042 415.984ZM564.704 425.384L561.932 410.439ZM600.139 449.73L615.084 446.957ZM605.684 479.62L620.629 476.847ZM611.228 509.51L626.173 506.737ZM586.883 544.945L589.655 559.89ZM557.068 550.475L559.84 565.42ZM527.177 556.02L529.95 570.965ZM465.634 474.681L480.579 471.908ZM471.178 504.571L486.123 501.798ZM476.723 534.461L491.668 531.688Z" fill="white"/>
<path d="M504.999 436.46L502.226 421.515M534.814 430.929L532.042 415.984M564.704 425.384L561.932 410.439M600.139 449.73L615.084 446.957M605.684 479.62L620.629 476.847M611.228 509.51L626.173 506.737M586.883 544.945L589.655 559.89M557.068 550.475L559.84 565.42M527.177 556.02L529.95 570.965M465.634 474.681L480.579 471.908M471.178 504.571L486.123 501.798M476.723 534.461L491.668 531.688M541.626 530.151L564.043 525.992C582.724 522.527 588.811 513.668 585.345 494.987L581.187 472.569C577.721 453.888 568.863 447.802 550.181 451.267L527.764 455.426C509.083 458.891 502.996 467.75 506.462 486.431L510.62 508.849C514.086 527.53 522.944 533.616 541.626 530.151Z" stroke="white" stroke-width="3" stroke-linecap="round" stroke-linejoin="round"/>
<path d="M539.059 553.816L574.927 547.162C604.817 541.618 614.555 527.444 609.01 497.554L602.357 461.686C596.812 431.796 582.638 422.057 552.748 427.602L516.88 434.256C486.99 439.8 477.252 453.974 482.796 483.864L489.45 519.732C494.995 549.622 509.169 559.361 539.059 553.816Z" stroke="white" stroke-width="6" stroke-linecap="round" stroke-linejoin="round"/>
<g filter="url(#filter4_d_0_1)">
<path d="M1312.34 1115.37L979.775 1139.02C974.198 1027.78 966.918 920.103 955.294 809.301L1284.28 784.824C1290.29 897.164 1301.74 1005.6 1312.34 1115.37Z" fill="#1E43A3"/>
</g>
<path d="M1297.37 1102.3L964.687 1125.92C959.11 1014.67 949.422 904.926 937.682 794.135L1271.25 769.198C1277.26 881.537 1286.66 992.495 1297.37 1102.3Z" fill="#3561D2"/>
<path d="M1074.48 766.648L1146.71 759.387L1149.58 764.89L1149.13 771.884L1151.66 785.528L1151.2 792.523L1153.04 799.287L1078.51 806.779L1074.48 766.648Z" fill="#C6D3E2" fill-opacity="0.76"/>
<path d="M1151.86 781.361C1151.38 779.093 1150.67 775.227 1150.28 772.95C1150.14 771.643 1150.6 769.026 1150.49 767.717C1150.32 766.165 1149.93 764.645 1149.34 763.2C1148.94 762.198 1148.47 761.224 1147.94 760.283C1147.79 759.951 1146.96 759.27 1146.73 759.293C1147.02 759.889 1147.85 761.496 1148.13 762.21C1148.72 763.654 1149.11 765.175 1149.28 766.727C1149.41 768.034 1148.82 770.642 1149.04 771.962C1149.43 774.239 1150.15 778.105 1150.65 780.371C1150.88 781.506 1151.05 784.384 1151.17 785.531C1151.35 787.342 1150.93 790.998 1151.14 792.807C1151.23 793.77 1151.73 795.758 1152.08 797.159C1152.31 798.063 1152.5 798.716 1152.5 798.716L1077.67 806.238C1077.96 806.684 1078.39 807.03 1078.88 807.228L1150.34 800.045C1151.27 800.07 1152.2 799.89 1153.06 799.516C1153.06 799.516 1153.7 799.128 1153.3 798.149C1152.82 796.739 1152.51 795.277 1152.37 793.795C1152.19 791.983 1152.59 788.33 1152.38 786.521C1152.24 785.376 1152.09 782.496 1151.86 781.361Z" fill="#3561D2"/>
<path d="M1086.15 1007.1L1161.49 1001.18C1181.33 999.621 1188.41 988.536 1188.34 975.707L1188.07 924.27C1188.05 921.081 1187.28 917.944 1185.79 915.052C1184.31 912.161 1182.14 909.577 1179.43 907.46C1176.73 905.343 1173.53 903.738 1170.04 902.744C1166.56 901.751 1162.86 901.39 1159.17 901.683C1154.78 902.028 1150.59 900.177 1148.31 896.991L1142.43 888.42C1138.68 883.045 1129.69 879.079 1122.36 879.655L1105.89 880.948C1098.49 881.53 1090.23 886.851 1087.36 892.745L1082.89 902.13C1081.14 905.632 1077.29 908.115 1072.9 908.459C1057.3 909.685 1045.83 921.987 1047.89 935.282L1055.64 986.131C1057.51 998.819 1066.31 1008.66 1086.15 1007.1ZM1106.22 918.302L1127.79 916.608Z" fill="white"/>
<path d="M1106.22 918.302L1127.79 916.608M1086.15 1007.1L1161.49 1001.18C1181.33 999.621 1188.41 988.536 1188.34 975.707L1188.07 924.27C1188.05 921.081 1187.28 917.944 1185.79 915.052C1184.31 912.161 1182.14 909.577 1179.43 907.46C1176.73 905.343 1173.53 903.738 1170.04 902.744C1166.56 901.751 1162.86 901.39 1159.17 901.683C1154.78 902.028 1150.59 900.177 1148.31 896.991L1142.43 888.42C1138.68 883.045 1129.69 879.079 1122.36 879.655L1105.89 880.948C1098.49 881.53 1090.23 886.851 1087.36 892.745L1082.89 902.13C1081.14 905.632 1077.29 908.115 1072.9 908.459C1057.3 909.685 1045.83 921.987 1047.89 935.282L1055.64 986.131C1057.51 998.819 1066.31 1008.66 1086.15 1007.1Z" stroke="white" stroke-width="1.5" stroke-linecap="round" stroke-linejoin="round"/>
<path d="M1121.39 974.868C1134.25 973.857 1143.92 962.537 1142.91 949.669C1141.9 936.801 1130.58 927.13 1117.71 928.141C1104.85 929.152 1095.18 940.472 1096.19 953.34C1097.2 966.207 1108.52 975.879 1121.39 974.868Z" stroke="#3561D2" stroke-width="5" stroke-linecap="round" stroke-linejoin="round"/>
<g filter="url(#filter5_d_0_1)">
<path d="M735.646 1156.69L455.515 1097.13C477.562 1002.69 497.347 910.829 514.296 815.312L791.668 873.325C769.718 968.789 753.198 1062.28 735.646 1156.69Z" fill="#185CAA"/>
</g>
<path d="M724.907 1142.88L438.72 1082.12C460.995 986.984 479.441 892.116 496.411 795.87L783.664 855.736C761.49 951.898 742.502 1047.72 724.907 1142.88Z" fill="#1376E9"/>
<path d="M618.398 805.87L681.054 817.265L682.139 822.6L680.059 828.386L678.883 840.501L676.803 846.288L676.713 852.436L612.067 840.679L618.398 805.87Z" fill="#C6D3E2" fill-opacity="0.76"/>
<path d="M680.068 837.039C680.211 835.01 680.547 831.578 680.77 829.563C680.976 828.429 681.994 826.334 682.22 825.203C682.452 823.854 682.494 822.478 682.347 821.117C682.249 820.174 682.09 819.239 681.87 818.318C681.824 818.001 681.287 817.225 681.088 817.189C681.19 817.762 681.502 819.319 681.566 819.988C681.715 821.35 681.672 822.726 681.439 824.075C681.233 825.209 680.099 827.263 679.969 828.431C679.746 830.446 679.41 833.878 679.287 835.91C679.205 836.923 678.653 839.391 678.473 840.386C678.187 841.957 676.946 844.937 676.68 846.512C676.528 847.347 676.469 849.145 676.423 850.41C676.398 851.228 676.393 851.823 676.393 851.823L611.489 840.019C611.627 840.466 611.9 840.86 612.27 841.147L674.25 852.419C675.033 852.668 675.861 852.741 676.676 852.635C676.676 852.635 677.304 852.461 677.204 851.539C677.145 850.234 677.238 848.927 677.481 847.644C677.767 846.073 678.988 843.089 679.254 841.514C679.415 840.516 679.986 838.051 680.068 837.039Z" fill="#1376E9"/>
<g clip-path="url(#clip2_0_1)">
<path d="M560.037 924.134L615.19 972.864L684.453 949.45M602.267 1036.93L615.204 972.793" stroke="white" stroke-width="4" stroke-linecap="round" stroke-linejoin="round"/>
<path d="M614.916 898.701L572.932 912.016C563.419 915.028 554.022 925.496 552.054 935.255L543.995 975.209C542.027 984.968 546.631 998.26 554.232 1004.72L587.758 1033.34C594.921 1039.42 608.144 1042.09 617.104 1039.26L659.103 1025.88C668.615 1022.86 678.012 1012.4 679.981 1002.64L688.039 962.684C690.008 952.925 685.403 939.633 677.802 933.169L644.277 904.55C637.043 898.455 623.89 895.801 614.916 898.701V898.701Z" stroke="white" stroke-width="4" stroke-linecap="round" stroke-linejoin="round"/>
</g>
<defs>
<filter id="filter0_d_0_1" x="966.225" y="300.024" width="330.954" height="333.845" filterUnits="userSpaceOnUse" color-interpolation-filters="sRGB">
<feFlood flood-opacity="0" result="BackgroundImageFix"/>
<feColorMatrix in="SourceAlpha" type="matrix" values="0 0 0 0 0 0 0 0 0 0 0 0 0 0 0 0 0 0 127 0" result="hardAlpha"/>
<feOffset dx="4" dy="4"/>
<feGaussianBlur stdDeviation="6"/>
<feComposite in2="hardAlpha" operator="out"/>
<feColorMatrix type="matrix" values="0 0 0 0 0 0 0 0 0 0 0 0 0 0 0 0 0 0 0.25 0"/>
<feBlend mode="normal" in2="BackgroundImageFix" result="effect1_dropShadow_0_1"/>
<feBlend mode="normal" in="SourceGraphic" in2="effect1_dropShadow_0_1" result="shape"/>
</filter>
<filter id="filter1_d_0_1" x="1471.65" y="833.621" width="348.823" height="346.269" filterUnits="userSpaceOnUse" color-interpolation-filters="sRGB">
<feFlood flood-opacity="0" result="BackgroundImageFix"/>
<feColorMatrix in="SourceAlpha" type="matrix" values="0 0 0 0 0 0 0 0 0 0 0 0 0 0 0 0 0 0 127 0" result="hardAlpha"/>
<feOffset dx="4" dy="4"/>
<feGaussianBlur stdDeviation="6"/>
<feComposite in2="hardAlpha" operator="out"/>
<feColorMatrix type="matrix" values="0 0 0 0 0 0 0 0 0 0 0 0 0 0 0 0 0 0 0.25 0"/>
<feBlend mode="normal" in2="BackgroundImageFix" result="effect1_dropShadow_0_1"/>
<feBlend mode="normal" in="SourceGraphic" in2="effect1_dropShadow_0_1" result="shape"/>
</filter>
<filter id="filter2_d_0_1" x="1495.57" y="326.145" width="370.733" height="369.694" filterUnits="userSpaceOnUse" color-interpolation-filters="sRGB">
<feFlood flood-opacity="0" result="BackgroundImageFix"/>
<feColorMatrix in="SourceAlpha" type="matrix" values="0 0 0 0 0 0 0 0 0 0 0 0 0 0 0 0 0 0 127 0" result="hardAlpha"/>
<feOffset dx="4" dy="4"/>
<feGaussianBlur stdDeviation="6"/>
<feComposite in2="hardAlpha" operator="out"/>
<feColorMatrix type="matrix" values="0 0 0 0 0 0 0 0 0 0 0 0 0 0 0 0 0 0 0.25 0"/>
<feBlend mode="normal" in2="BackgroundImageFix" result="effect1_dropShadow_0_1"/>
<feBlend mode="normal" in="SourceGraphic" in2="effect1_dropShadow_0_1" result="shape"/>
</filter>
<filter id="filter3_d_0_1" x="360.202" y="302.905" width="405.936" height="403.5" filterUnits="userSpaceOnUse" color-interpolation-filters="sRGB">
<feFlood flood-opacity="0" result="BackgroundImageFix"/>
<feColorMatrix in="SourceAlpha" type="matrix" values="0 0 0 0 0 0 0 0 0 0 0 0 0 0 0 0 0 0 127 0" result="hardAlpha"/>
<feOffset dx="4" dy="4"/>
<feGaussianBlur stdDeviation="6"/>
<feComposite in2="hardAlpha" operator="out"/>
<feColorMatrix type="matrix" values="0 0 0 0 0 0 0 0 0 0 0 0 0 0 0 0 0 0 0.25 0"/>
<feBlend mode="normal" in2="BackgroundImageFix" result="effect1_dropShadow_0_1"/>
<feBlend mode="normal" in="SourceGraphic" in2="effect1_dropShadow_0_1" result="shape"/>
</filter>
<filter id="filter4_d_0_1" x="947.294" y="776.824" width="381.044" height="378.2" filterUnits="userSpaceOnUse" color-interpolation-filters="sRGB">
<feFlood flood-opacity="0" result="BackgroundImageFix"/>
<feColorMatrix in="SourceAlpha" type="matrix" values="0 0 0 0 0 0 0 0 0 0 0 0 0 0 0 0 0 0 127 0" result="hardAlpha"/>
<feOffset dx="4" dy="4"/>
<feGaussianBlur stdDeviation="6"/>
<feComposite in2="hardAlpha" operator="out"/>
<feColorMatrix type="matrix" values="0 0 0 0 0 0 0 0 0 0 0 0 0 0 0 0 0 0 0.25 0"/>
<feBlend mode="normal" in2="BackgroundImageFix" result="effect1_dropShadow_0_1"/>
<feBlend mode="normal" in="SourceGraphic" in2="effect1_dropShadow_0_1" result="shape"/>
</filter>
<filter id="filter5_d_0_1" x="447.515" y="807.312" width="360.153" height="365.377" filterUnits="userSpaceOnUse" color-interpolation-filters="sRGB">
<feFlood flood-opacity="0" result="BackgroundImageFix"/>
<feColorMatrix in="SourceAlpha" type="matrix" values="0 0 0 0 0 0 0 0 0 0 0 0 0 0 0 0 0 0 127 0" result="hardAlpha"/>
<feOffset dx="4" dy="4"/>
<feGaussianBlur stdDeviation="6"/>
<feComposite in2="hardAlpha" operator="out"/>
<feColorMatrix type="matrix" values="0 0 0 0 0 0 0 0 0 0 0 0 0 0 0 0 0 0 0.25 0"/>
<feBlend mode="normal" in2="BackgroundImageFix" result="effect1_dropShadow_0_1"/>
<feBlend mode="normal" in="SourceGraphic" in2="effect1_dropShadow_0_1" result="shape"/>
</filter>
<clipPath id="clip0_0_1">
<rect width="318.426" height="335.971" fill="white" transform="translate(967.277 278.563) rotate(3.08176)"/>
</clipPath>
<clipPath id="clip1_0_1">
<rect width="138.455" height="131.755" fill="white" transform="translate(1546 932.597) rotate(-7.71914)"/>
</clipPath>
<clipPath id="clip2_0_1">
<rect width="173.135" height="173.135" fill="white" transform="translate(548.233 867) rotate(11.4039)"/>
</clipPath>
</defs>
</svg>
