<svg width="1541" height="908" viewBox="0 0 1541 908" fill="none" xmlns="http://www.w3.org/2000/svg">
<rect width="1541" height="908" fill="#1E1E1E"/>
<rect width="1541" height="908" fill="white"/>
<g clip-path="url(#clip0_0_1)">
<g filter="url(#filter0_d_0_1)">
<path d="M932.274 343.869L645.225 319.964C655.225 223.845 663.298 130.565 668.077 34.0239L952.179 56.7487C942.404 153.862 937.796 248.349 932.274 343.869Z" fill="#1B63B7"/>
</g>
<path d="M920.474 333.603L628.918 309.321C639.049 212.137 645.416 115.703 650.145 18.0863L942.647 41.3456C932.745 139.534 925.959 236.979 920.474 333.603Z" fill="#3B93FA"/>
<path d="M772.421 12.6634L836.013 16.0871L837.76 21.2427L836.424 27.2447L836.782 39.4118L835.446 45.4138L836.13 51.5245L770.519 47.9921L772.421 12.6634Z" fill="#C6D3E2" fill-opacity="0.76"/>
<path d="M837.521 35.8275C837.408 33.7968 837.31 30.3496 837.277 28.3232C837.339 27.1725 838.086 24.9653 838.168 23.8157C838.228 22.4475 838.097 21.0777 837.78 19.7455C837.564 18.8228 837.289 17.9152 836.954 17.0286C836.87 16.7203 836.239 16.0183 836.037 16.0074C836.21 16.5633 836.716 18.0686 836.863 18.7244C837.182 20.0562 837.313 21.4264 837.251 22.7946C837.189 23.9453 836.323 26.1257 836.34 27.301C836.373 29.3274 836.471 32.7745 836.604 34.8063C836.651 35.8211 836.414 38.3392 836.36 39.3486C836.274 40.9434 835.418 44.0558 835.352 45.6517C835.307 46.4996 835.474 48.2902 835.588 49.5517C835.666 50.3657 835.735 50.9566 835.735 50.9566L769.862 47.4101C770.056 47.8364 770.376 48.1929 770.779 48.4313L833.684 51.818C834.493 51.9658 835.324 51.9345 836.119 51.7263C836.119 51.7263 836.719 51.4753 836.505 50.5729C836.281 49.286 836.209 47.9775 836.289 46.6739C836.375 45.0791 837.211 41.9657 837.277 40.3698C837.311 39.3593 837.568 36.8423 837.521 35.8275Z" fill="#3B93FA"/>
<path d="M840.441 191.088L842.993 159.909C843.927 148.491 843.927 148.491 833.213 140.288L803.513 120.615C799.055 117.661 791.427 117.037 786.548 119.227L754.044 133.808C742.138 140.16 742.138 140.16 741.204 151.577L738.652 182.757C737.717 194.175 737.717 194.175 748.432 202.378L778.132 222.051C782.59 225.005 790.218 225.629 795.097 223.439L827.601 208.858C839.506 202.506 839.506 202.506 840.441 191.088Z" fill="white" stroke="white" stroke-width="3" stroke-linecap="round" stroke-linejoin="round"/>
<path d="M752.23 205.196L750.879 221.695C749.852 234.242 755.914 241.054 769.065 242.131L801.943 244.822C815.094 245.898 822.183 240.163 823.21 227.615L824.524 211.555" stroke="white" stroke-width="3" stroke-linecap="round" stroke-linejoin="round"/>
<path d="M796.863 154.214L800.183 160.088C800.707 161.013 801.955 161.993 802.923 162.32L809.507 164.468C813.574 165.791 814.431 169.266 811.493 172.196L806.694 176.941C805.974 177.706 805.336 179.109 805.325 180.118L805.213 186.738C805.162 190.838 801.976 192.676 798.146 190.866L791.887 187.923C790.743 187.456 789.472 187.358 788.269 187.644L781.635 189.596C777.572 190.798 774.71 188.432 775.282 184.435L776.184 177.876C776.327 176.877 775.917 175.33 775.317 174.526L771.301 169.104C768.845 165.758 770.224 162.455 774.446 161.77L781.281 160.654C782.353 160.484 783.741 159.644 784.33 158.869L788.509 153.572C791.138 150.365 794.822 150.648 796.863 154.214Z" fill="#3B93FA" stroke="white" stroke-width="3" stroke-linecap="round" stroke-linejoin="round"/>
</g>
<g filter="url(#filter1_d_0_1)">
<path d="M1475.48 856.197L1184.96 889.89C1175.74 792.616 1165.16 698.542 1150.65 601.894L1438 567.621C1447.65 665.835 1461.91 760.413 1475.48 856.197Z" fill="#1B63B7"/>
</g>
<path d="M1457.46 843.259L1166.84 876.927C1157.62 779.653 1144.85 683.855 1130.24 587.222L1421.59 552.366C1431.24 650.579 1443.79 747.45 1457.46 843.259Z" fill="#3B93FA"/>
<path d="M1249.05 557.802L1312.07 548.623L1314.8 553.333L1314.67 559.48L1317.42 571.338L1317.29 577.486L1319.17 583.342L1254.15 592.812L1249.05 557.802Z" fill="#C6D3E2" fill-opacity="0.76"/>
<path d="M1317.44 567.679C1316.93 565.71 1316.15 562.35 1315.72 560.37C1315.55 559.229 1315.85 556.918 1315.7 555.775C1315.49 554.422 1315.1 553.105 1314.52 551.861C1314.13 550.999 1313.68 550.164 1313.18 549.36C1313.03 549.075 1312.28 548.511 1312.08 548.54C1312.36 549.051 1313.15 550.427 1313.42 551.041C1314 552.284 1314.4 553.601 1314.6 554.955C1314.77 556.095 1314.35 558.404 1314.6 559.552C1315.03 561.532 1315.81 564.893 1316.34 566.858C1316.58 567.844 1316.85 570.359 1316.99 571.36C1317.22 572.94 1317 576.16 1317.25 577.738C1317.37 578.578 1317.89 580.301 1318.25 581.515C1318.48 582.297 1318.67 582.863 1318.67 582.863L1253.39 592.371C1253.66 592.751 1254.05 593.037 1254.49 593.192L1316.83 584.112C1317.65 584.097 1318.46 583.903 1319.2 583.542C1319.2 583.542 1319.74 583.177 1319.35 582.335C1318.88 581.118 1318.55 579.849 1318.37 578.555C1318.14 576.975 1318.34 573.758 1318.09 572.18C1317.93 571.183 1317.68 568.664 1317.44 567.679Z" fill="#3B93FA"/>
<g clip-path="url(#clip1_0_1)">
<path d="M1315.38 664.984L1314.23 656.498C1313.93 654.267 1311.73 652.681 1309.39 652.999C1307.04 653.317 1305.35 655.43 1305.65 657.66L1306.76 665.82L1269.6 670.857L1268.5 662.697C1268.19 660.466 1266 658.88 1263.66 659.198C1261.31 659.516 1259.62 661.629 1259.92 663.859L1261.07 672.346C1245.82 675.798 1239.52 685.571 1240.14 698.728C1240.24 700.321 1241.79 701.441 1243.39 701.224L1340.11 688.113C1341.77 687.888 1342.96 686.342 1342.58 684.842C1339.67 671.996 1331 664.252 1315.38 664.984V664.984ZM1338.59 696.63L1247.12 709.028C1243.98 709.454 1241.74 712.25 1242.14 715.243L1246.69 748.753C1248.9 765.074 1258.95 774.791 1278.96 772.079L1324.69 765.88C1344.7 763.168 1351.8 751.126 1349.59 734.806L1345.04 701.295C1344.64 698.303 1341.73 696.203 1338.59 696.63ZM1283.08 750.524C1282.57 751.091 1282 751.557 1281.35 751.922C1280.7 752.287 1279.98 752.551 1279.23 752.652C1278.49 752.752 1277.72 752.69 1277 752.511C1276.28 752.332 1275.6 752.036 1274.96 751.624C1273.79 750.73 1272.97 749.401 1272.78 747.986C1272.59 746.572 1273.02 745.072 1273.91 743.899C1274.42 743.332 1275 742.866 1275.65 742.501C1276.96 741.768 1278.52 741.557 1279.99 741.912C1280.71 742.091 1281.39 742.387 1282.03 742.799C1283.2 743.693 1284.02 745.022 1284.21 746.437C1284.4 747.851 1283.97 749.351 1283.08 750.524V750.524ZM1281.45 729.526C1281.26 730.217 1280.94 730.87 1280.5 731.484C1279.99 732.051 1279.41 732.517 1278.77 732.882C1278.12 733.247 1277.4 733.511 1276.65 733.611C1275.91 733.712 1275.14 733.65 1274.42 733.471C1273.7 733.292 1273.02 732.996 1272.38 732.584C1271.79 732.11 1271.31 731.566 1270.94 730.951C1270.55 730.337 1270.3 729.656 1270.2 728.946C1270.1 728.239 1270.18 727.509 1270.38 726.817C1270.57 726.125 1270.89 725.473 1271.33 724.859C1271.84 724.292 1272.42 723.826 1273.06 723.461C1274.38 722.728 1275.94 722.517 1277.41 722.872C1278.13 723.051 1278.81 723.347 1279.45 723.759C1280.04 724.233 1280.52 724.777 1280.89 725.391C1281.27 726.005 1281.54 726.689 1281.63 727.396C1281.73 728.104 1281.65 728.834 1281.45 729.526V729.526ZM1300.51 728.772C1300 729.339 1299.42 729.805 1298.77 730.17C1298.13 730.535 1297.4 730.799 1296.66 730.899C1295.92 731 1295.15 730.938 1294.43 730.759C1293.71 730.58 1293.03 730.284 1292.39 729.872C1291.22 728.978 1290.4 727.649 1290.21 726.234C1290.02 724.82 1290.45 723.32 1291.34 722.147C1291.85 721.58 1292.42 721.114 1293.07 720.749C1294.36 719.965 1295.96 719.748 1297.42 720.16C1298.14 720.339 1298.82 720.635 1299.46 721.047C1300.63 721.941 1301.45 723.27 1301.64 724.684C1301.83 726.099 1301.39 727.599 1300.51 728.772V728.772Z" fill="white"/>
</g>
<g filter="url(#filter2_d_0_1)">
<path d="M1502.28 405.839L1174.57 382.193C1184.75 273.91 1192.76 168.844 1196.97 60.1454L1521.31 82.4972C1511.4 191.896 1507.36 298.282 1502.28 405.839Z" fill="#185CAB"/>
</g>
<path d="M1489.86 395.285L1157.22 371.15C1167.58 260.246 1173.67 150.241 1177.87 38.909L1511.58 61.8674C1501.49 173.914 1494.94 285.075 1489.86 395.285Z" fill="#1376E9"/>
<path d="M1317.19 31.2411L1389.72 34.3709L1391.78 40.2266L1390.33 47.0847L1390.88 60.9497L1389.43 67.8078L1390.29 74.7651L1315.45 71.536L1317.19 31.2411Z" fill="#C6D3E2" fill-opacity="0.76"/>
<path d="M1391.68 56.855C1391.53 54.5415 1391.38 50.6132 1391.31 48.3037C1391.37 46.9912 1392.19 44.4662 1392.27 43.1547C1392.33 41.5944 1392.16 40.0344 1391.78 38.5197C1391.53 37.4705 1391.2 36.4392 1390.81 35.4327C1390.71 35.0823 1389.98 34.2897 1389.75 34.2798C1389.95 34.9114 1390.55 36.6211 1390.72 37.3668C1391.1 38.8812 1391.27 40.4414 1391.22 42.0018C1391.16 43.3143 1390.2 45.8103 1390.23 47.1498C1390.29 49.4593 1390.45 53.3875 1390.63 55.702C1390.69 56.8583 1390.45 59.7315 1390.4 60.8828C1390.32 62.7018 1389.39 66.2601 1389.33 68.0801C1389.29 69.0472 1389.5 71.0863 1389.65 72.5229C1389.74 73.4498 1389.83 74.1226 1389.83 74.1226L1314.7 70.8805C1314.92 71.3641 1315.29 71.7666 1315.76 72.0334L1387.5 75.1295C1388.43 75.2881 1389.37 75.2423 1390.28 74.9954C1390.28 74.9954 1390.96 74.7019 1390.7 73.6758C1390.43 72.2117 1390.33 70.7209 1390.41 69.234C1390.49 67.415 1391.4 63.8558 1391.46 62.0358C1391.49 60.8835 1391.75 58.0112 1391.68 56.855Z" fill="#1376E9"/>
<path d="M1362.14 161.313L1314.09 157.77C1293.21 156.232 1279.85 167.758 1278.31 188.631L1274.77 236.629C1273.23 257.559 1284.76 270.92 1305.63 272.459L1353.63 275.997C1374.5 277.536 1387.86 266.009 1389.4 245.136L1392.94 197.081C1394.54 176.212 1383.01 162.851 1362.14 161.313ZM1321.54 223.298C1317.19 228.874 1311.46 233.221 1304.92 235.911C1304.4 236.128 1303.85 236.241 1303.28 236.242C1302.72 236.243 1302.16 236.133 1301.64 235.918C1301.12 235.702 1300.65 235.387 1300.25 234.988C1299.86 234.589 1299.54 234.116 1299.33 233.596C1299.11 233.069 1298.99 232.504 1298.99 231.933C1298.99 231.363 1299.11 230.797 1299.33 230.271C1299.55 229.745 1299.87 229.268 1300.28 228.869C1300.69 228.47 1301.17 228.157 1301.71 227.948C1306.88 225.849 1311.4 222.378 1314.78 218.014C1315.92 216.542 1316.07 214.592 1315.15 212.968C1312.39 208.152 1308.43 204.054 1303.68 201.225C1303.18 200.943 1302.74 200.563 1302.39 200.109C1302.05 199.655 1301.79 199.135 1301.65 198.581C1301.51 198.027 1301.48 197.45 1301.57 196.884C1301.65 196.319 1301.85 195.776 1302.15 195.29C1303.34 193.244 1305.99 192.574 1308.03 193.82C1314.1 197.439 1319.14 202.596 1322.61 208.732C1325.27 213.368 1324.84 219.102 1321.54 223.298ZM1360.97 240.504L1338.04 238.813C1335.68 238.639 1333.88 236.546 1334.05 234.195C1334.22 231.844 1336.32 230.038 1338.67 230.211L1361.61 231.902C1363.96 232.075 1365.76 234.169 1365.59 236.52C1365.42 238.871 1363.32 240.677 1360.97 240.504Z" fill="white"/>
<g filter="url(#filter3_d_0_1)">
<path d="M421.138 361.017L95.2888 416.406C79.0121 306.95 61.4023 201.195 39.2021 92.7619L361.439 36.9053C378.25 147.398 400.054 253.505 421.138 361.017Z" fill="#1E43A3"/>
</g>
<path d="M408.873 354.858L80.0667 410.727C63.6944 300.549 43.3766 192.265 20.9162 83.1415L350.477 25.8753C367.388 137.098 387.529 246.615 408.873 354.858Z" fill="#3561D2"/>
<path d="M154.389 42.4786L225.575 28.2255L228.966 33.4227L229.193 40.4285L233.038 53.7614L233.266 60.7672L235.753 67.3205L162.308 82.0261L154.389 42.4786Z" fill="#C6D3E2" fill-opacity="0.76"/>
<path d="M232.838 49.5941C232.137 47.384 231.052 43.6056 230.441 41.3774C230.183 40.0893 230.381 37.4406 230.146 36.1479C229.824 34.6203 229.292 33.1448 228.563 31.764C228.064 30.8062 227.502 29.8822 226.881 28.9982C226.7 28.6818 225.805 28.0854 225.579 28.1306C225.927 28.6956 226.913 30.214 227.261 30.8964C227.991 32.2765 228.524 33.7523 228.844 35.2804C229.102 36.5686 228.764 39.2218 229.117 40.5144C229.727 42.7426 230.813 46.521 231.536 48.7265C231.876 49.8338 232.328 52.6813 232.554 53.8112C232.912 55.5965 232.849 59.2758 233.23 61.0565C233.42 62.0057 234.112 63.9355 234.595 65.2959C234.912 66.1726 235.156 66.8054 235.156 66.8054L161.417 81.5698C161.752 81.9856 162.206 82.2884 162.719 82.4373L233.136 68.3381C234.071 68.272 234.979 68.0018 235.798 67.5465C235.798 67.5465 236.39 67.0989 235.897 66.1634C235.286 64.8059 234.835 63.3816 234.554 61.9195C234.197 60.1342 234.236 56.4595 233.856 54.6788C233.608 53.5534 233.178 50.7014 232.838 49.5941Z" fill="#3561D2"/>
<path d="M212.626 256.151L235.043 251.992C253.724 248.527 259.811 239.668 256.345 220.987L252.187 198.569C248.721 179.888 239.863 173.802 221.181 177.267L198.764 181.426C180.083 184.891 173.996 193.75 177.462 212.431L181.62 234.849C185.086 253.53 193.944 259.616 212.626 256.151ZM175.999 162.46L173.226 147.515ZM205.814 156.929L203.042 141.984ZM235.704 151.384L232.932 136.439ZM271.139 175.73L286.084 172.957ZM276.684 205.62L291.629 202.847ZM282.228 235.51L297.173 232.737ZM257.883 270.945L260.655 285.89ZM228.068 276.475L230.84 291.42ZM198.177 282.02L200.95 296.965ZM136.634 200.681L151.579 197.908ZM142.178 230.571L157.123 227.798ZM147.723 260.461L162.668 257.688Z" fill="white"/>
<path d="M175.999 162.46L173.226 147.515M205.814 156.929L203.042 141.984M235.704 151.384L232.932 136.439M271.139 175.73L286.084 172.957M276.684 205.62L291.629 202.847M282.228 235.51L297.173 232.737M257.883 270.945L260.655 285.89M228.068 276.475L230.84 291.42M198.177 282.02L200.95 296.965M136.634 200.681L151.579 197.908M142.178 230.571L157.123 227.798M147.723 260.461L162.668 257.688M212.626 256.151L235.043 251.992C253.724 248.527 259.811 239.668 256.345 220.987L252.187 198.569C248.721 179.888 239.863 173.802 221.181 177.267L198.764 181.426C180.083 184.891 173.996 193.75 177.462 212.431L181.62 234.849C185.086 253.53 193.944 259.616 212.626 256.151Z" stroke="white" stroke-width="3" stroke-linecap="round" stroke-linejoin="round"/>
<path d="M210.059 279.816L245.927 273.162C275.817 267.618 285.555 253.444 280.01 223.554L273.357 187.686C267.812 157.796 253.638 148.057 223.748 153.602L187.88 160.256C157.99 165.8 148.252 179.974 153.796 209.864L160.45 245.732C165.995 275.622 180.169 285.361 210.059 279.816Z" stroke="white" stroke-width="6" stroke-linecap="round" stroke-linejoin="round"/>
<g filter="url(#filter4_d_0_1)">
<path d="M983.338 841.369L650.775 865.024C645.198 753.776 637.918 646.103 626.294 535.301L955.276 510.824C961.288 623.164 972.743 731.598 983.338 841.369Z" fill="#1E43A3"/>
</g>
<path d="M968.369 828.3L635.687 851.921C630.11 740.673 620.422 630.926 608.682 520.135L942.251 495.198C948.262 607.537 957.656 718.495 968.369 828.3Z" fill="#3561D2"/>
<path d="M745.478 492.648L817.712 485.387L820.582 490.89L820.127 497.884L822.656 511.528L822.201 518.523L824.039 525.287L749.512 532.779L745.478 492.648Z" fill="#C6D3E2" fill-opacity="0.76"/>
<path d="M822.863 507.361C822.38 505.093 821.667 501.227 821.276 498.95C821.145 497.643 821.6 495.026 821.491 493.717C821.32 492.165 820.933 490.645 820.342 489.2C819.938 488.198 819.469 487.224 818.937 486.283C818.788 485.951 817.955 485.27 817.726 485.293C818.017 485.889 818.851 487.496 819.131 488.21C819.723 489.654 820.11 491.175 820.28 492.727C820.411 494.034 819.816 496.642 820.042 497.962C820.433 500.239 821.146 504.105 821.651 506.371C821.881 507.506 822.055 510.384 822.17 511.531C822.352 513.342 821.932 516.998 822.137 518.807C822.234 519.77 822.735 521.758 823.084 523.159C823.314 524.063 823.495 524.716 823.495 524.716L748.67 532.238C748.963 532.684 749.386 533.03 749.881 533.228L821.336 526.045C822.272 526.07 823.203 525.89 824.062 525.516C824.062 525.516 824.695 525.128 824.295 524.149C823.819 522.739 823.509 521.277 823.371 519.795C823.189 517.983 823.586 514.33 823.381 512.521C823.243 511.376 823.093 508.496 822.863 507.361Z" fill="#3561D2"/>
<path d="M757.148 733.097L832.486 727.179C852.327 725.621 859.412 714.536 859.345 701.707L859.066 650.27C859.05 647.081 858.275 643.944 856.791 641.052C855.306 638.161 853.143 635.577 850.434 633.46C847.726 631.343 844.53 629.738 841.044 628.744C837.558 627.751 833.856 627.39 830.167 627.683C825.782 628.028 821.586 626.177 819.311 622.991L813.43 614.42C809.68 609.045 800.689 605.079 793.357 605.655L776.894 606.948C769.49 607.53 761.228 612.851 758.364 618.745L753.893 628.13C752.143 631.632 748.288 634.115 743.903 634.459C728.303 635.685 716.829 647.987 718.886 661.282L726.641 712.131C728.506 724.819 737.307 734.656 757.148 733.097ZM777.225 644.302L798.791 642.608Z" fill="white"/>
<path d="M777.225 644.302L798.791 642.608M757.148 733.097L832.486 727.179C852.327 725.621 859.412 714.536 859.345 701.707L859.066 650.27C859.05 647.081 858.275 643.944 856.791 641.052C855.306 638.161 853.143 635.577 850.434 633.46C847.726 631.343 844.53 629.738 841.044 628.744C837.558 627.751 833.856 627.39 830.167 627.683C825.782 628.028 821.586 626.177 819.311 622.991L813.43 614.42C809.68 609.045 800.689 605.079 793.357 605.655L776.894 606.948C769.49 607.53 761.228 612.851 758.364 618.745L753.893 628.13C752.143 631.632 748.288 634.115 743.903 634.459C728.303 635.685 716.829 647.987 718.886 661.282L726.641 712.131C728.506 724.819 737.307 734.656 757.148 733.097Z" stroke="white" stroke-width="1.5" stroke-linecap="round" stroke-linejoin="round"/>
<path d="M792.385 700.868C805.253 699.857 814.924 688.537 813.914 675.669C812.903 662.801 801.583 653.13 788.715 654.141C775.847 655.152 766.176 666.472 767.187 679.34C768.198 692.207 779.518 701.879 792.385 700.868Z" stroke="#3561D2" stroke-width="5" stroke-linecap="round" stroke-linejoin="round"/>
<g filter="url(#filter5_d_0_1)">
<path d="M406.646 882.689L126.515 823.135C148.562 728.688 168.347 636.829 185.296 541.312L462.668 599.325C440.718 694.789 424.198 788.282 406.646 882.689Z" fill="#185CAA"/>
</g>
<path d="M395.907 868.883L109.72 808.122C131.995 712.984 150.441 618.116 167.411 521.87L454.664 581.736C432.49 677.898 413.502 773.716 395.907 868.883Z" fill="#1376E9"/>
<path d="M289.398 531.87L352.054 543.265L353.139 548.6L351.059 554.386L349.883 566.501L347.803 572.288L347.713 578.436L283.067 566.679L289.398 531.87Z" fill="#C6D3E2" fill-opacity="0.76"/>
<path d="M351.068 563.039C351.211 561.01 351.547 557.578 351.77 555.563C351.976 554.429 352.994 552.334 353.22 551.203C353.452 549.854 353.494 548.478 353.347 547.117C353.249 546.174 353.09 545.239 352.87 544.318C352.824 544.001 352.287 543.225 352.088 543.189C352.19 543.762 352.502 545.319 352.566 545.988C352.715 547.35 352.672 548.726 352.439 550.075C352.233 551.209 351.099 553.263 350.969 554.431C350.746 556.446 350.41 559.878 350.287 561.91C350.205 562.923 349.653 565.391 349.473 566.386C349.187 567.957 347.946 570.937 347.68 572.512C347.528 573.347 347.469 575.145 347.423 576.41C347.398 577.228 347.393 577.823 347.393 577.823L282.489 566.019C282.627 566.466 282.9 566.86 283.27 567.147L345.25 578.419C346.033 578.668 346.861 578.741 347.676 578.635C347.676 578.635 348.304 578.461 348.204 577.539C348.145 576.234 348.238 574.927 348.481 573.644C348.767 572.073 349.988 569.089 350.254 567.514C350.415 566.516 350.986 564.051 351.068 563.039Z" fill="#1376E9"/>
<g clip-path="url(#clip2_0_1)">
<path d="M231.037 650.134L286.19 698.864L355.453 675.45M273.267 762.932L286.204 698.793" stroke="white" stroke-width="4" stroke-linecap="round" stroke-linejoin="round"/>
<path d="M285.916 624.701L243.932 638.016C234.419 641.028 225.022 651.496 223.054 661.255L214.995 701.209C213.027 710.968 217.631 724.26 225.232 730.724L258.758 759.343C265.921 765.424 279.144 768.092 288.104 765.263L330.103 751.877C339.615 748.865 349.012 738.397 350.981 728.638L359.039 688.684C361.008 678.925 356.403 665.633 348.802 659.169L315.277 630.55C308.043 624.455 294.89 621.801 285.916 624.701V624.701Z" stroke="white" stroke-width="4" stroke-linecap="round" stroke-linejoin="round"/>
</g>
<defs>
<filter id="filter0_d_0_1" x="637.225" y="26.0238" width="330.954" height="333.845" filterUnits="userSpaceOnUse" color-interpolation-filters="sRGB">
<feFlood flood-opacity="0" result="BackgroundImageFix"/>
<feColorMatrix in="SourceAlpha" type="matrix" values="0 0 0 0 0 0 0 0 0 0 0 0 0 0 0 0 0 0 127 0" result="hardAlpha"/>
<feOffset dx="4" dy="4"/>
<feGaussianBlur stdDeviation="6"/>
<feComposite in2="hardAlpha" operator="out"/>
<feColorMatrix type="matrix" values="0 0 0 0 0 0 0 0 0 0 0 0 0 0 0 0 0 0 0.25 0"/>
<feBlend mode="normal" in2="BackgroundImageFix" result="effect1_dropShadow_0_1"/>
<feBlend mode="normal" in="SourceGraphic" in2="effect1_dropShadow_0_1" result="shape"/>
</filter>
<filter id="filter1_d_0_1" x="1142.65" y="559.621" width="348.823" height="346.269" filterUnits="userSpaceOnUse" color-interpolation-filters="sRGB">
<feFlood flood-opacity="0" result="BackgroundImageFix"/>
<feColorMatrix in="SourceAlpha" type="matrix" values="0 0 0 0 0 0 0 0 0 0 0 0 0 0 0 0 0 0 127 0" result="hardAlpha"/>
<feOffset dx="4" dy="4"/>
<feGaussianBlur stdDeviation="6"/>
<feComposite in2="hardAlpha" operator="out"/>
<feColorMatrix type="matrix" values="0 0 0 0 0 0 0 0 0 0 0 0 0 0 0 0 0 0 0.25 0"/>
<feBlend mode="normal" in2="BackgroundImageFix" result="effect1_dropShadow_0_1"/>
<feBlend mode="normal" in="SourceGraphic" in2="effect1_dropShadow_0_1" result="shape"/>
</filter>
<filter id="filter2_d_0_1" x="1166.57" y="52.1454" width="370.733" height="369.694" filterUnits="userSpaceOnUse" color-interpolation-filters="sRGB">
<feFlood flood-opacity="0" result="BackgroundImageFix"/>
<feColorMatrix in="SourceAlpha" type="matrix" values="0 0 0 0 0 0 0 0 0 0 0 0 0 0 0 0 0 0 127 0" result="hardAlpha"/>
<feOffset dx="4" dy="4"/>
<feGaussianBlur stdDeviation="6"/>
<feComposite in2="hardAlpha" operator="out"/>
<feColorMatrix type="matrix" values="0 0 0 0 0 0 0 0 0 0 0 0 0 0 0 0 0 0 0.25 0"/>
<feBlend mode="normal" in2="BackgroundImageFix" result="effect1_dropShadow_0_1"/>
<feBlend mode="normal" in="SourceGraphic" in2="effect1_dropShadow_0_1" result="shape"/>
</filter>
<filter id="filter3_d_0_1" x="31.2021" y="28.9053" width="405.936" height="403.5" filterUnits="userSpaceOnUse" color-interpolation-filters="sRGB">
<feFlood flood-opacity="0" result="BackgroundImageFix"/>
<feColorMatrix in="SourceAlpha" type="matrix" values="0 0 0 0 0 0 0 0 0 0 0 0 0 0 0 0 0 0 127 0" result="hardAlpha"/>
<feOffset dx="4" dy="4"/>
<feGaussianBlur stdDeviation="6"/>
<feComposite in2="hardAlpha" operator="out"/>
<feColorMatrix type="matrix" values="0 0 0 0 0 0 0 0 0 0 0 0 0 0 0 0 0 0 0.25 0"/>
<feBlend mode="normal" in2="BackgroundImageFix" result="effect1_dropShadow_0_1"/>
<feBlend mode="normal" in="SourceGraphic" in2="effect1_dropShadow_0_1" result="shape"/>
</filter>
<filter id="filter4_d_0_1" x="618.294" y="502.824" width="381.044" height="378.199" filterUnits="userSpaceOnUse" color-interpolation-filters="sRGB">
<feFlood flood-opacity="0" result="BackgroundImageFix"/>
<feColorMatrix in="SourceAlpha" type="matrix" values="0 0 0 0 0 0 0 0 0 0 0 0 0 0 0 0 0 0 127 0" result="hardAlpha"/>
<feOffset dx="4" dy="4"/>
<feGaussianBlur stdDeviation="6"/>
<feComposite in2="hardAlpha" operator="out"/>
<feColorMatrix type="matrix" values="0 0 0 0 0 0 0 0 0 0 0 0 0 0 0 0 0 0 0.25 0"/>
<feBlend mode="normal" in2="BackgroundImageFix" result="effect1_dropShadow_0_1"/>
<feBlend mode="normal" in="SourceGraphic" in2="effect1_dropShadow_0_1" result="shape"/>
</filter>
<filter id="filter5_d_0_1" x="118.515" y="533.312" width="360.153" height="365.377" filterUnits="userSpaceOnUse" color-interpolation-filters="sRGB">
<feFlood flood-opacity="0" result="BackgroundImageFix"/>
<feColorMatrix in="SourceAlpha" type="matrix" values="0 0 0 0 0 0 0 0 0 0 0 0 0 0 0 0 0 0 127 0" result="hardAlpha"/>
<feOffset dx="4" dy="4"/>
<feGaussianBlur stdDeviation="6"/>
<feComposite in2="hardAlpha" operator="out"/>
<feColorMatrix type="matrix" values="0 0 0 0 0 0 0 0 0 0 0 0 0 0 0 0 0 0 0.25 0"/>
<feBlend mode="normal" in2="BackgroundImageFix" result="effect1_dropShadow_0_1"/>
<feBlend mode="normal" in="SourceGraphic" in2="effect1_dropShadow_0_1" result="shape"/>
</filter>
<clipPath id="clip0_0_1">
<rect width="318.426" height="335.971" fill="white" transform="translate(638.277 4.56277) rotate(3.08176)"/>
</clipPath>
<clipPath id="clip1_0_1">
<rect width="138.455" height="131.755" fill="white" transform="translate(1217 658.597) rotate(-7.71914)"/>
</clipPath>
<clipPath id="clip2_0_1">
<rect width="173.135" height="173.135" fill="white" transform="translate(219.233 593) rotate(11.4039)"/>
</clipPath>
</defs>
</svg>
